<?xml version="1.0" standalone="no"?>
<!DOCTYPE svg PUBLIC "-//W3C//DTD SVG 20010904//EN"
 "http://www.w3.org/TR/2001/REC-SVG-20010904/DTD/svg10.dtd">
<svg version="1.0" xmlns="http://www.w3.org/2000/svg"
 width="128.000000pt" height="128.000000pt" viewBox="0 0 512.000000 512.000000"
 preserveAspectRatio="xMidYMid meet">

<g transform="translate(0.000000,512.000000) scale(0.100000,-0.100000)"
fill="#222224" stroke="none">
<path d="M2782 5110 c-335 -42 -672 -222 -895 -476 -143 -164 -259 -384 -311
-589 -204 -804 312 -1608 1129 -1761 137 -26 373 -26 510 0 587 109 1042 564
1151 1151 26 137 26 373 0 510 -109 581 -561 1039 -1138 1150 -100 19 -345 27
-446 15z m248 -610 c40 -21 80 -79 80 -119 0 -14 17 -27 63 -48 80 -38 131
-87 147 -140 11 -36 11 -49 -4 -88 -22 -56 -64 -87 -126 -93 -40 -4 -57 1
-102 26 -67 38 -106 46 -157 32 -44 -12 -75 -53 -69 -93 4 -27 65 -62 208
-118 173 -67 246 -126 299 -238 23 -50 26 -68 26 -167 0 -107 -1 -112 -37
-185 -44 -88 -117 -165 -194 -204 -47 -24 -54 -31 -54 -57 0 -73 -59 -137
-134 -145 -79 -9 -147 41 -164 122 -7 35 -11 39 -68 56 -127 39 -214 118 -214
195 0 51 37 111 84 133 58 29 79 27 166 -16 66 -33 84 -37 150 -38 57 0 83 5
103 18 67 43 89 142 43 188 -13 13 -59 37 -102 53 -208 76 -330 160 -378 259
-82 168 -7 394 161 489 41 23 53 35 53 54 0 43 38 102 78 123 48 26 93 26 142
1z"/>
<path d="M1065 2369 c-109 -16 -217 -56 -571 -218 -461 -209 -450 -203 -474
-251 -20 -38 -20 -57 -20 -870 0 -813 0 -832 20 -870 22 -44 80 -80 128 -80
16 0 260 88 542 195 l513 195 626 -219 c344 -120 653 -225 686 -232 36 -8 117
-13 205 -13 162 1 242 17 379 77 59 26 1110 639 1690 986 255 153 373 405 316
675 -37 175 -164 337 -326 414 -107 52 -182 66 -307 59 -89 -5 -153 -22 -812
-216 -872 -258 -783 -229 -774 -250 54 -126 81 -391 50 -511 -27 -105 -63
-169 -140 -246 -133 -132 -309 -183 -481 -139 -33 9 -166 63 -295 122 -129 58
-309 139 -400 180 -91 41 -176 81 -188 89 -35 23 -65 98 -57 142 9 46 38 88
77 108 65 33 85 27 513 -166 223 -100 423 -184 445 -187 62 -9 128 15 175 62
55 55 70 108 62 229 -12 209 -119 396 -291 510 -66 44 -743 349 -856 386 -140
46 -290 60 -435 39z"/>
</g>
</svg>
