<svg id="visual" viewBox="0 0 1600 900" width="1600" height="900" xmlns="http://www.w3.org/2000/svg" xmlns:xlink="http://www.w3.org/1999/xlink" version="1.1"><rect x="0" y="0" width="1600" height="900" fill="#ffffff"></rect><path d="M0 572L29.7 566.8C59.3 561.7 118.7 551.3 178 562.7C237.3 574 296.7 607 355.8 620.5C415 634 474 628 533.2 625.8C592.3 623.7 651.7 625.3 711 627.7C770.3 630 829.7 633 889 642.2C948.3 651.3 1007.7 666.7 1066.8 649.2C1126 631.7 1185 581.3 1244.2 562.5C1303.3 543.7 1362.7 556.3 1422 578.3C1481.3 600.3 1540.7 631.7 1570.3 647.3L1600 663L1600 901L1570.3 901C1540.7 901 1481.3 901 1422 901C1362.7 901 1303.3 901 1244.2 901C1185 901 1126 901 1066.8 901C1007.7 901 948.3 901 889 901C829.7 901 770.3 901 711 901C651.7 901 592.3 901 533.2 901C474 901 415 901 355.8 901C296.7 901 237.3 901 178 901C118.7 901 59.3 901 29.7 901L0 901Z" fill="#f6e5f5"></path><path d="M0 662L29.7 674.7C59.3 687.3 118.7 712.7 178 706.3C237.3 700 296.7 662 355.8 658.8C415 655.7 474 687.3 533.2 703.5C592.3 719.7 651.7 720.3 711 714.8C770.3 709.3 829.7 697.7 889 696.8C948.3 696 1007.7 706 1066.8 706.3C1126 706.7 1185 697.3 1244.2 688.8C1303.3 680.3 1362.7 672.7 1422 659.8C1481.3 647 1540.7 629 1570.3 620L1600 611L1600 901L1570.3 901C1540.7 901 1481.3 901 1422 901C1362.7 901 1303.3 901 1244.2 901C1185 901 1126 901 1066.8 901C1007.7 901 948.3 901 889 901C829.7 901 770.3 901 711 901C651.7 901 592.3 901 533.2 901C474 901 415 901 355.8 901C296.7 901 237.3 901 178 901C118.7 901 59.3 901 29.7 901L0 901Z" fill="#e6dbf3"></path><path d="M0 765L29.7 766.8C59.3 768.7 118.7 772.3 178 766.2C237.3 760 296.7 744 355.8 743.5C415 743 474 758 533.2 759C592.3 760 651.7 747 711 746C770.3 745 829.7 756 889 756.2C948.3 756.3 1007.7 745.7 1066.8 739.3C1126 733 1185 731 1244.2 732.7C1303.3 734.3 1362.7 739.7 1422 738.8C1481.3 738 1540.7 731 1570.3 727.5L1600 724L1600 901L1570.3 901C1540.7 901 1481.3 901 1422 901C1362.7 901 1303.3 901 1244.2 901C1185 901 1126 901 1066.8 901C1007.7 901 948.3 901 889 901C829.7 901 770.3 901 711 901C651.7 901 592.3 901 533.2 901C474 901 415 901 355.8 901C296.7 901 237.3 901 178 901C118.7 901 59.3 901 29.7 901L0 901Z" fill="#d2d3f1"></path><path d="M0 811L29.7 813.7C59.3 816.3 118.7 821.7 178 823.3C237.3 825 296.7 823 355.8 818.7C415 814.3 474 807.7 533.2 805.3C592.3 803 651.7 805 711 812C770.3 819 829.7 831 889 829.7C948.3 828.3 1007.7 813.7 1066.8 808.3C1126 803 1185 807 1244.2 814.3C1303.3 821.7 1362.7 832.3 1422 833.8C1481.3 835.3 1540.7 827.7 1570.3 823.8L1600 820L1600 901L1570.3 901C1540.7 901 1481.3 901 1422 901C1362.7 901 1303.3 901 1244.2 901C1185 901 1126 901 1066.8 901C1007.7 901 948.3 901 889 901C829.7 901 770.3 901 711 901C651.7 901 592.3 901 533.2 901C474 901 415 901 355.8 901C296.7 901 237.3 901 178 901C118.7 901 59.3 901 29.7 901L0 901Z" fill="#b9cced"></path></svg>
